<?xml version="1.0" encoding="UTF-8"?>
<svg width="17.4978949px" height="14.1044776px" viewBox="0 0 17.4978949 14.1044776" version="1.1" xmlns="http://www.w3.org/2000/svg" xmlns:xlink="http://www.w3.org/1999/xlink">
    <title>icon_top_ai</title>
    <defs>
        <polygon id="path-1" points="0 0 17.4978949 0 17.4978949 18 0 18"></polygon>
        <linearGradient x1="76.7425921%" y1="82.4871533%" x2="36.06107%" y2="17.5128467%" id="linearGradient-3">
            <stop stop-color="#0C5BF5" offset="0%"></stop>
            <stop stop-color="#4393F3" offset="100%"></stop>
        </linearGradient>
    </defs>
    <g id="页面-1" stroke="none" stroke-width="1" fill="none" fill-rule="evenodd">
        <g id="神笔简历-院校端（网页）" transform="translate(-654.000000, -28.000000)">
            <g id="icon_top_ai" transform="translate(654.000000, 26.000000)">
                <mask id="mask-2" fill="white">
                    <use xlink:href="#path-1"></use>
                </mask>
                <g id="path-1"></g>
                <path d="M14.9222645,16.1044776 C14.0050033,16.1044776 13.1503055,15.6110056 12.6916749,14.8166549 L7.90945103,6.53358209 L4.12866185,13.0820896 L8.58109282,13.0820896 C9.41570849,13.0820896 10.0922868,13.7586679 10.0922868,14.5932836 C10.0922868,15.4278993 9.41570849,16.1044776 8.58109282,16.1044776 L1.51118983,16.1044776 C0.971307369,16.1044776 0.472411847,15.816444 0.20246222,15.3488806 C-0.0674874067,14.8813172 -0.0674874067,14.30525 0.20246222,13.8376866 L6.60070662,2.75559701 C6.87065625,2.28803358 7.36955177,2 7.90945103,2 C8.44933349,2 8.94822901,2.28803358 9.21817864,2.75559701 L14.4753876,11.861347 L14.4747495,3.51131157 C14.4746824,2.6766959 15.1512104,2 15.985826,2 C16.8204249,2 17.4970704,2.67646082 17.4971376,3.51107649 L17.49791,13.5286306 C17.49791,14.2166269 17.230076,14.8634851 16.7436059,15.3500056 C16.2571189,15.8365261 15.6102943,16.1044776 14.9222645,16.1044776" id="Fill-1" fill="url(#linearGradient-3)" fill-rule="nonzero" mask="url(#mask-2)"></path>
            </g>
        </g>
    </g>
</svg>